<svg xmlns="http://www.w3.org/2000/svg" width="43.492" height="25.47"><path d="M41.652 5.838h-8.589a1.841 1.841 0 00-1.841 1.84v15.951a1.841 1.841 0 001.841 1.84h8.589a1.841 1.841 0 001.84-1.84V7.678a1.841 1.841 0 00-1.84-1.84zm-4.295 18.4a1.227 1.227 0 111.227-1.227 1.226 1.226 0 01-1.227 1.227zm4.295-4.141a.461.461 0 01-.46.46h-7.67a.461.461 0 01-.46-.46V8.138a.461.461 0 01.46-.46h7.669a.461.461 0 01.46.46zM26.266 0H2.388A2.388 2.388 0 000 2.388v15.919a2.388 2.388 0 002.388 2.388h9.551l-.8 2.388H7.562a1.194 1.194 0 100 2.388h13.531a1.194 1.194 0 100-2.388h-3.582l-.8-2.388h9.551a2.388 2.388 0 002.388-2.388V2.388A2.388 2.388 0 0026.266 0zm-.8 17.511H3.184V3.184H25.47z" fill="#fff"/></svg>