<svg xmlns="http://www.w3.org/2000/svg" width="265" height="74.051" viewBox="0 0 265 74.051">
  <g id="top-text-sp" transform="translate(-160 -522)">
    <circle id="Ellipse_443" data-name="Ellipse 443" cx="1.28" cy="1.28" r="1.28" transform="translate(160 593.49)" fill="#fff"/>
    <circle id="Ellipse_443-2" data-name="Ellipse 443" cx="1.28" cy="1.28" r="1.28" transform="translate(166.401 593.49)" fill="#fff"/>
    <circle id="Ellipse_443-3" data-name="Ellipse 443" cx="1.28" cy="1.28" r="1.28" transform="translate(172.802 593.49)" fill="#fff"/>
    <circle id="Ellipse_443-4" data-name="Ellipse 443" cx="1.28" cy="1.28" r="1.28" transform="translate(179.203 593.49)" fill="#fff"/>
    <circle id="Ellipse_443-5" data-name="Ellipse 443" cx="1.28" cy="1.28" r="1.28" transform="translate(185.604 593.49)" fill="#fff"/>
    <circle id="Ellipse_443-6" data-name="Ellipse 443" cx="1.28" cy="1.28" r="1.28" transform="translate(192.005 593.49)" fill="#fff"/>
    <circle id="Ellipse_443-7" data-name="Ellipse 443" cx="1.28" cy="1.28" r="1.28" transform="translate(198.406 593.49)" fill="#fff"/>
    <circle id="Ellipse_443-8" data-name="Ellipse 443" cx="1.28" cy="1.28" r="1.28" transform="translate(204.807 593.49)" fill="#fff"/>
    <circle id="Ellipse_443-9" data-name="Ellipse 443" cx="1.28" cy="1.28" r="1.28" transform="translate(211.208 593.49)" fill="#fff"/>
    <circle id="Ellipse_443-10" data-name="Ellipse 443" cx="1.28" cy="1.28" r="1.28" transform="translate(217.609 593.49)" fill="#fff"/>
    <circle id="Ellipse_443-11" data-name="Ellipse 443" cx="1.28" cy="1.28" r="1.28" transform="translate(224.01 593.49)" fill="#fff"/>
    <circle id="Ellipse_443-12" data-name="Ellipse 443" cx="1.28" cy="1.28" r="1.28" transform="translate(230.411 593.49)" fill="#fff"/>
    <circle id="Ellipse_443-13" data-name="Ellipse 443" cx="1.28" cy="1.28" r="1.28" transform="translate(236.812 593.49)" fill="#fff"/>
    <circle id="Ellipse_443-14" data-name="Ellipse 443" cx="1.28" cy="1.28" r="1.28" transform="translate(243.213 593.49)" fill="#fff"/>
    <circle id="Ellipse_443-15" data-name="Ellipse 443" cx="1.28" cy="1.28" r="1.28" transform="translate(249.614 593.49)" fill="#fff"/>
    <circle id="Ellipse_443-16" data-name="Ellipse 443" cx="1.28" cy="1.28" r="1.28" transform="translate(256.014 593.49)" fill="#fff"/>
    <circle id="Ellipse_443-17" data-name="Ellipse 443" cx="1.28" cy="1.28" r="1.28" transform="translate(262.415 593.49)" fill="#fff"/>
    <circle id="Ellipse_443-18" data-name="Ellipse 443" cx="1.28" cy="1.28" r="1.28" transform="translate(268.816 593.49)" fill="#fff"/>
    <circle id="Ellipse_443-19" data-name="Ellipse 443" cx="1.28" cy="1.28" r="1.28" transform="translate(275.217 593.49)" fill="#fff"/>
    <circle id="Ellipse_443-20" data-name="Ellipse 443" cx="1.28" cy="1.28" r="1.28" transform="translate(281.618 593.49)" fill="#fff"/>
    <circle id="Ellipse_443-21" data-name="Ellipse 443" cx="1.28" cy="1.28" r="1.28" transform="translate(288.019 593.49)" fill="#fff"/>
    <circle id="Ellipse_443-22" data-name="Ellipse 443" cx="1.28" cy="1.28" r="1.28" transform="translate(294.42 593.49)" fill="#fff"/>
    <circle id="Ellipse_443-23" data-name="Ellipse 443" cx="1.28" cy="1.28" r="1.28" transform="translate(300.821 593.49)" fill="#fff"/>
    <circle id="Ellipse_443-24" data-name="Ellipse 443" cx="1.28" cy="1.28" r="1.28" transform="translate(307.222 593.49)" fill="#fff"/>
    <circle id="Ellipse_443-25" data-name="Ellipse 443" cx="1.28" cy="1.28" r="1.28" transform="translate(313.623 593.49)" fill="#fff"/>
    <circle id="Ellipse_443-26" data-name="Ellipse 443" cx="1.28" cy="1.28" r="1.28" transform="translate(320.024 593.49)" fill="#fff"/>
    <circle id="Ellipse_443-27" data-name="Ellipse 443" cx="1.28" cy="1.28" r="1.28" transform="translate(326.425 593.49)" fill="#fff"/>
    <circle id="Ellipse_443-28" data-name="Ellipse 443" cx="1.28" cy="1.28" r="1.28" transform="translate(332.826 593.49)" fill="#fff"/>
    <circle id="Ellipse_443-29" data-name="Ellipse 443" cx="1.28" cy="1.28" r="1.28" transform="translate(339.227 593.49)" fill="#fff"/>
    <circle id="Ellipse_443-30" data-name="Ellipse 443" cx="1.28" cy="1.28" r="1.28" transform="translate(345.628 593.49)" fill="#fff"/>
    <circle id="Ellipse_443-31" data-name="Ellipse 443" cx="1.28" cy="1.28" r="1.28" transform="translate(352.029 593.49)" fill="#fff"/>
    <circle id="Ellipse_443-32" data-name="Ellipse 443" cx="1.28" cy="1.28" r="1.28" transform="translate(358.43 593.49)" fill="#fff"/>
    <circle id="Ellipse_443-33" data-name="Ellipse 443" cx="1.28" cy="1.28" r="1.28" transform="translate(364.831 593.49)" fill="#fff"/>
    <circle id="Ellipse_443-34" data-name="Ellipse 443" cx="1.28" cy="1.28" r="1.28" transform="translate(371.232 593.49)" fill="#fff"/>
    <circle id="Ellipse_443-35" data-name="Ellipse 443" cx="1.28" cy="1.28" r="1.28" transform="translate(377.633 593.49)" fill="#fff"/>
    <circle id="Ellipse_443-36" data-name="Ellipse 443" cx="1.28" cy="1.28" r="1.28" transform="translate(384.034 593.49)" fill="#fff"/>
    <circle id="Ellipse_443-37" data-name="Ellipse 443" cx="1.28" cy="1.28" r="1.28" transform="translate(390.435 593.49)" fill="#fff"/>
    <circle id="Ellipse_443-38" data-name="Ellipse 443" cx="1.28" cy="1.28" r="1.28" transform="translate(396.836 593.49)" fill="#fff"/>
    <circle id="Ellipse_443-39" data-name="Ellipse 443" cx="1.28" cy="1.28" r="1.28" transform="translate(403.237 593.49)" fill="#fff"/>
    <circle id="Ellipse_443-40" data-name="Ellipse 443" cx="1.28" cy="1.28" r="1.28" transform="translate(409.638 593.49)" fill="#fff"/>
    <circle id="Ellipse_443-41" data-name="Ellipse 443" cx="1.28" cy="1.28" r="1.28" transform="translate(416.039 593.49)" fill="#fff"/>
    <circle id="Ellipse_443-42" data-name="Ellipse 443" cx="1.28" cy="1.28" r="1.28" transform="translate(422.44 593.49)" fill="#fff"/>
    <text id="アットホームな歯医者さん" transform="translate(160 585.886)" fill="#fff" font-size="20" font-family="rounded-mplus-1c-bold, 'Rounded M\+ \31 c'" font-weight="700" letter-spacing="0.08em"><tspan x="0" y="0">アットホームな</tspan><tspan y="0">歯医者</tspan><tspan y="0">さん</tspan></text>
    <circle id="Ellipse_443-43" data-name="Ellipse 443" cx="1.28" cy="1.28" r="1.28" transform="translate(160 550.604)" fill="#fff"/>
    <circle id="Ellipse_443-44" data-name="Ellipse 443" cx="1.28" cy="1.28" r="1.28" transform="translate(166.401 550.604)" fill="#fff"/>
    <circle id="Ellipse_443-45" data-name="Ellipse 443" cx="1.28" cy="1.28" r="1.28" transform="translate(172.802 550.604)" fill="#fff"/>
    <circle id="Ellipse_443-46" data-name="Ellipse 443" cx="1.28" cy="1.28" r="1.28" transform="translate(179.203 550.604)" fill="#fff"/>
    <circle id="Ellipse_443-47" data-name="Ellipse 443" cx="1.28" cy="1.28" r="1.28" transform="translate(185.604 550.604)" fill="#fff"/>
    <circle id="Ellipse_443-48" data-name="Ellipse 443" cx="1.28" cy="1.28" r="1.28" transform="translate(192.005 550.604)" fill="#fff"/>
    <circle id="Ellipse_443-49" data-name="Ellipse 443" cx="1.28" cy="1.28" r="1.28" transform="translate(198.406 550.604)" fill="#fff"/>
    <circle id="Ellipse_443-50" data-name="Ellipse 443" cx="1.28" cy="1.28" r="1.28" transform="translate(204.807 550.604)" fill="#fff"/>
    <circle id="Ellipse_443-51" data-name="Ellipse 443" cx="1.28" cy="1.28" r="1.28" transform="translate(211.208 550.604)" fill="#fff"/>
    <circle id="Ellipse_443-52" data-name="Ellipse 443" cx="1.28" cy="1.28" r="1.28" transform="translate(217.609 550.604)" fill="#fff"/>
    <circle id="Ellipse_443-53" data-name="Ellipse 443" cx="1.28" cy="1.28" r="1.28" transform="translate(224.01 550.604)" fill="#fff"/>
    <circle id="Ellipse_443-54" data-name="Ellipse 443" cx="1.28" cy="1.28" r="1.28" transform="translate(230.411 550.604)" fill="#fff"/>
    <circle id="Ellipse_443-55" data-name="Ellipse 443" cx="1.28" cy="1.28" r="1.28" transform="translate(236.812 550.604)" fill="#fff"/>
    <circle id="Ellipse_443-56" data-name="Ellipse 443" cx="1.28" cy="1.28" r="1.28" transform="translate(243.213 550.604)" fill="#fff"/>
    <circle id="Ellipse_443-57" data-name="Ellipse 443" cx="1.28" cy="1.28" r="1.28" transform="translate(249.614 550.604)" fill="#fff"/>
    <circle id="Ellipse_443-58" data-name="Ellipse 443" cx="1.28" cy="1.28" r="1.28" transform="translate(256.014 550.604)" fill="#fff"/>
    <circle id="Ellipse_443-59" data-name="Ellipse 443" cx="1.28" cy="1.28" r="1.28" transform="translate(262.415 550.604)" fill="#fff"/>
    <circle id="Ellipse_443-60" data-name="Ellipse 443" cx="1.28" cy="1.28" r="1.28" transform="translate(268.816 550.604)" fill="#fff"/>
    <circle id="Ellipse_443-61" data-name="Ellipse 443" cx="1.28" cy="1.28" r="1.28" transform="translate(275.217 550.604)" fill="#fff"/>
    <circle id="Ellipse_443-62" data-name="Ellipse 443" cx="1.28" cy="1.28" r="1.28" transform="translate(281.618 550.604)" fill="#fff"/>
    <circle id="Ellipse_443-63" data-name="Ellipse 443" cx="1.28" cy="1.28" r="1.28" transform="translate(288.019 550.604)" fill="#fff"/>
    <circle id="Ellipse_443-64" data-name="Ellipse 443" cx="1.28" cy="1.28" r="1.28" transform="translate(294.42 550.604)" fill="#fff"/>
    <circle id="Ellipse_443-65" data-name="Ellipse 443" cx="1.28" cy="1.28" r="1.28" transform="translate(300.821 550.604)" fill="#fff"/>
    <circle id="Ellipse_443-66" data-name="Ellipse 443" cx="1.28" cy="1.28" r="1.28" transform="translate(307.222 550.604)" fill="#fff"/>
    <circle id="Ellipse_443-67" data-name="Ellipse 443" cx="1.28" cy="1.28" r="1.28" transform="translate(313.623 550.604)" fill="#fff"/>
    <circle id="Ellipse_443-68" data-name="Ellipse 443" cx="1.28" cy="1.28" r="1.28" transform="translate(320.024 550.604)" fill="#fff"/>
    <circle id="Ellipse_443-69" data-name="Ellipse 443" cx="1.28" cy="1.28" r="1.28" transform="translate(326.425 550.604)" fill="#fff"/>
    <circle id="Ellipse_443-70" data-name="Ellipse 443" cx="1.28" cy="1.28" r="1.28" transform="translate(332.826 550.604)" fill="#fff"/>
    <circle id="Ellipse_443-71" data-name="Ellipse 443" cx="1.28" cy="1.28" r="1.28" transform="translate(339.227 550.604)" fill="#fff"/>
    <circle id="Ellipse_443-72" data-name="Ellipse 443" cx="1.28" cy="1.28" r="1.28" transform="translate(345.628 550.604)" fill="#fff"/>
    <circle id="Ellipse_443-73" data-name="Ellipse 443" cx="1.28" cy="1.28" r="1.28" transform="translate(352.029 550.604)" fill="#fff"/>
    <circle id="Ellipse_443-74" data-name="Ellipse 443" cx="1.28" cy="1.28" r="1.28" transform="translate(358.43 550.604)" fill="#fff"/>
    <circle id="Ellipse_443-75" data-name="Ellipse 443" cx="1.28" cy="1.28" r="1.28" transform="translate(364.831 550.604)" fill="#fff"/>
    <circle id="Ellipse_443-76" data-name="Ellipse 443" cx="1.28" cy="1.28" r="1.28" transform="translate(371.232 550.604)" fill="#fff"/>
    <circle id="Ellipse_443-77" data-name="Ellipse 443" cx="1.28" cy="1.28" r="1.28" transform="translate(377.633 550.604)" fill="#fff"/>
    <circle id="Ellipse_443-78" data-name="Ellipse 443" cx="1.28" cy="1.28" r="1.28" transform="translate(384.034 550.604)" fill="#fff"/>
    <circle id="Ellipse_443-79" data-name="Ellipse 443" cx="1.28" cy="1.28" r="1.28" transform="translate(390.435 550.604)" fill="#fff"/>
    <circle id="Ellipse_443-80" data-name="Ellipse 443" cx="1.28" cy="1.28" r="1.28" transform="translate(396.836 550.604)" fill="#fff"/>
    <text id="街の皆さまの笑顔を守る" transform="translate(160 543)" fill="#fff" font-size="20" font-family="rounded-mplus-1c-bold, 'Rounded M\+ \31 c'" font-weight="700" letter-spacing="0.08em"><tspan x="0" y="0">街</tspan><tspan y="0">の</tspan><tspan y="0">皆</tspan><tspan y="0">さまの</tspan><tspan y="0">笑顔</tspan><tspan y="0">を</tspan><tspan y="0">守</tspan><tspan y="0">る</tspan></text>
  </g>
</svg>
